# xmcd
#
# Track frame offsets:
# 150
# 18235
# 53425
# 69615
# 98810
# 141600
# 160590
# 176840
# 196645
# 217475
# 234630
# 249740
# 270225
# 307605
# 326045
#
# Disc length: 4700 seconds
#
#
# Revision: 2
# Processed by: cddbd v1.5PL3 Copyright (c) Steve Scherf et al.
# Submitted via: FreeRIP 2.60 
#
DISCID=d0125a0f
DTITLE=The J.B.'s - Funky Good Time: The Anthology - Disk 2
DYEAR=1995
DGENRE=Soul
TTITLE0=Gimme Some More
TTITLE1=Same Beat (Parts 1, 2 and 3)
TTITLE2=If You Don't Get it the First Time, Back Up and Try It Again
TTITLE3=Damn Right I Am Somebody
TTITLE4=I'm Payin' Taxes, What Am I Buyin'
TTITLE5=Soul Power
TTITLE6=Keep On Bumpin' Before You Give Out of Gas
TTITLE7=Breakin' Bread
TTITLE8=Rockin' Funky Watergate
TTITLE9=Control (People Go Where We Send You Part 1)
TTITLE10=Cross the Track (We Better Go Back)
TTITLE11=All Aboard the Soul Funky Train
TTITLE12=(It's Not the Express) It's the J.B.'s Monaurail
TTITLE13=Future Shock (Dance Your Pants Off)
TTITLE14=Everybody Wanna Get Funky One More Time (Part 1)
EXTD=
EXTT0=
EXTT1=
EXTT2=
EXTT3=
EXTT4=
EXTT5=
EXTT6=
EXTT7=
EXTT8=
EXTT9=
EXTT10=
EXTT11=
EXTT12=
EXTT13=
EXTT14=
PLAYORDER=
